<?xml version="1.0" encoding="utf-8"?>
<!-- Svg Vector Icons : http://www.onlinewebfonts.com/icon -->
<!DOCTYPE svg PUBLIC "-//W3C//DTD SVG 1.1//EN" "http://www.w3.org/Graphics/SVG/1.1/DTD/svg11.dtd">
<svg version="1.1" xmlns="http://www.w3.org/2000/svg" xmlns:xlink="http://www.w3.org/1999/xlink" x="0px" y="0px" viewBox="0 0 1000 1000" enable-background="new 0 0 1000 1000" xml:space="preserve">
<metadata> Svg Vector Icons : http://www.onlinewebfonts.com/icon </metadata>
<g><g transform="translate(0.000000,512.000000) scale(0.100000,-0.100000)"><path d="M2226.2,4989.1c-599.4-126.4-1039.9-610.9-1122.2-1229.5c-82.3-610.9,281.5-1235.2,861.8-1478.5c224.1-93.8,375.4-113,869.5-113h448.1l23,111.1c34.5,155.1,168.5,430.9,287.3,586l99.6,132.1l-38.3,97.7c-113,281.5-137.9,649.2-61.3,938.4c76.6,287.3,247,570.7,459.6,762.2l97.7,88.1l-109.2,42.1c-229.8,86.2-321.7,95.8-1020.7,93.8C2511.6,5019.8,2329.6,5012.1,2226.2,4989.1z"/><path d="M4905.4,4973.8c-549.6-120.6-988.2-568.8-1082-1108.8c-26.8-160.9-13.4-442.4,28.7-580.3l32.6-101.5l99.6,59.4c568.8,331.3,1231.4,321.7,1754.2-28.7l147.5-97.7l122.6,34.5c68.9,17.2,210.7,44.1,314.1,57.5c227.9,28.7,249,47.9,281.5,260.5c84.3,563-243.2,1143.3-792.8,1399.9C5539.3,4994.9,5190.8,5035.1,4905.4,4973.8z M6054.5,4159.9c105.3-91.9,136-201.1,136-469.2c0-201.1-5.7-243.2-46-331.3c-55.5-122.6-118.7-176.2-206.8-176.2c-137.9,0-235.5,178.1-250.9,455.8c-11.5,235.6,28.7,398.3,130.2,503.7C5905.1,4234.6,5962.6,4238.4,6054.5,4159.9z"/><path d="M655.8,3671.6c-157-17.2-172.4-23-168.5-59.4c1.9-21.1,151.3-655,331.3-1407.6c180-752.6,438.6-1828.9,574.5-2392c134.1-563,436.6-1825.1,670.3-2805.6c235.6-980.5,429-1782.9,430.9-1786.8c1.9-1.9,101.5,7.6,222.2,21.1l218.3,24.9l-3.8,55.6c-1.9,32.6-247,1541.6-545.8,3355.2l-540,3297.8l-145.6,91.9c-193.4,122.6-459.6,381.1-584.1,570.7c-180,270-254.7,503.7-275.8,842.6l-11.5,210.7L655.8,3671.6z"/><path d="M4505.2,3166c-252.8-68.9-419.4-162.8-605.2-340.9c-520.9-496-522.8-1319.5-7.7-1834.7C4336.7,546.1,5074,467.6,5594.9,808.5c157,103.4,350.5,300.7,432.8,446.2c145.5,252.8,201.1,591.8,145.5,875.2c-95.8,478.8-432.8,854.1-911.6,1015C5079.7,3206.2,4692.9,3217.7,4505.2,3166z M4273.5,2511c118.7-139.8,141.7-492.2,49.8-735.4c-57.5-151.3-162.8-258.5-252.8-258.5c-88.1,0-136,38.3-183.8,147.5c-109.2,258.5-44,685.6,132.1,850.3C4103,2593.3,4204.5,2593.3,4273.5,2511z"/><path d="M6286.2,3020.4c-9.6-1.9-68.9-15.3-130.2-28.7l-109.2-21.1l107.2-136c136-176.2,245.1-400.2,296.8-618.6c34.5-145.5,38.3-208.7,30.7-402.2c-5.7-126.4-24.9-281.5-42.1-344.7c-47.9-178.1-170.4-413.7-293-568.8c-109.2-136-329.4-321.7-463.5-388.8l-65.1-34.5l55.5-46c82.4-67,306.4-170.4,440.5-204.9c63.2-15.3,386.9-63.2,718.2-107.3c700.9-93.8,815.8-93.8,1099.3,1.9c524.7,174.3,888.6,612.8,969,1164.4c101.5,681.8-335.1,1352.1-1005.4,1551.2C7623,2917,6403,3056.8,6286.2,3020.4z"/><path d="M9132.1,1302.6c-28.7-222.1-107.2-452-212.6-632C8756.7,398.7,8406.2,90.3,8086.4-59l-114.9-53.6l-400.3-1440.2c-220.2-792.9-404.1-1451.6-409.8-1465c-5.8-19.1,72.8-23,379.2-19.1l386.8,5.7l792.8,2211.9c434.7,1216.1,792.9,2213.9,792.9,2215.8s-340.9,82.3-352.4,82.3C9158.9,1478.8,9145.5,1398.3,9132.1,1302.6z"/></g></g>
</svg>